<svg width="60" height="60" viewBox="0 0 60 60" fill="none" xmlns="http://www.w3.org/2000/svg">
<path d="M21 50C21.5523 50 22 49.5523 22 49V41C22 40.4477 21.5523 40 21 40H15C14.4477 40 14 40.4477 14 41V49C14 49.5523 14.4477 50 15 50H21ZM16 42H20V48H16V42Z" fill="#3C424F"/>
<path d="M45 50C45.5523 50 46 49.5523 46 49V41C46 40.4477 45.5523 40 45 40H39C38.4477 40 38 40.4477 38 41V49C38 49.5523 38.4477 50 39 50H45ZM40 42H44V48H40V42Z" fill="#3C424F"/>
<path d="M54.1198 53.88V53.6C54.1198 51.19 52.2998 49.24 49.9998 49.04V33.52L51.0098 34.34C51.4437 34.6923 52.1039 34.6319 52.4398 34.17L54.7998 31.03C55.1198 30.6 55.0498 29.99 54.6298 29.65L49.9998 25.91V16H50.9998C51.5498 16 51.9998 15.55 51.9998 15V11C51.9998 10.45 51.5498 10 50.9998 10H40.9998C40.4498 10 39.9998 10.45 39.9998 11V15C39.9998 15.55 40.4498 16 40.9998 16H41.9998V19.43L30.6298 10.22C30.2598 9.92999 29.7398 9.92999 29.3698 10.22L5.36976 29.65C4.94978 29.99 4.87977 30.6 5.19978 31.03L7.55984 34.1701C7.88683 34.6197 8.56957 34.7002 8.98976 34.34L9.99977 33.52V47C9.99977 47.55 10.4498 48 10.9998 48C11.5498 48 11.9998 47.55 11.9998 47V31.9L29.9998 17.29L47.9998 31.9V49.32C47.2098 49.63 46.5098 50.17 45.9998 50.88C44.4697 50.55 42.8798 51.3 42.1298 52.64C40.3598 52.88 38.9998 54.43 38.9998 56.3C38.9998 56.92 39.1597 57.49 39.4198 58H35.9998V41C35.9998 40.45 35.5498 40 34.9998 40H24.9998C24.4498 40 23.9998 40.45 23.9998 41V58H11.9998V55C11.9998 54.45 11.5498 54 10.9998 54C10.4498 54 9.99977 54.45 9.99977 55V59C9.99977 59.55 10.4498 60 10.9998 60H51.3798C53.3698 60 54.9998 58.34 54.9998 56.3C54.9998 55.4 54.6798 54.55 54.1198 53.88ZM33.9998 58H25.9998V42H33.9998V58ZM41.9998 12H49.9998V14H41.9998V12ZM47.9998 16V24.29L43.9998 21.05V16H47.9998ZM30.6295 15.2198C30.2711 14.9213 29.7288 14.9283 29.3698 15.22L8.53974 32.14L7.37977 30.6L29.9998 12.29L52.6198 30.6L51.4598 32.14L30.6295 15.2198ZM51.3798 58H42.6198C41.7298 58 40.9998 57.24 40.9998 56.3C40.9998 55.36 41.7298 54.6 42.6198 54.6C43.1098 54.68 43.5798 54.39 43.7298 53.92C44.0398 53 45.1398 52.54 45.9798 52.98C46.2298 53.11 46.5198 53.13 46.7798 53.04C47.0398 52.95 47.2498 52.76 47.3598 52.5C47.7698 51.59 48.6597 51 49.6198 51C50.9998 51 52.1198 52.17 52.1198 53.6C52.1198 53.76 52.1098 53.91 52.0898 54.03C52.0098 54.39 52.1398 54.76 52.4097 55C52.7798 55.31 52.9998 55.8 52.9998 56.3C52.9998 57.24 52.2698 58 51.3798 58Z" fill="#3C424F"/>
<path d="M11 52C11.5523 52 12 51.5523 12 51C12 50.4477 11.5523 50 11 50C10.4477 50 10 50.4477 10 51C10 51.5523 10.4477 52 11 52Z" fill="#3C424F"/>
<path d="M17.4473 9.10547C15.1836 7.97363 13.6006 5.90088 13.1035 3.41846L12.9805 2.80371C12.8867 2.33643 12.4766 2 12 2C11.5234 2 11.1133 2.33643 11.0195 2.80371L10.8965 3.41846C10.3994 5.90088 8.81641 7.97363 6.55273 9.10547C6.21387 9.2749 6 9.62109 6 10C6 10.3789 6.21387 10.7251 6.55273 10.8945C8.81641 12.0264 10.3994 14.0991 10.8965 16.5815L11.0195 17.1963C11.1133 17.6636 11.5234 18 12 18C12.4766 18 12.8867 17.6636 12.9805 17.1963L13.1035 16.5815C13.6006 14.0991 15.1836 12.0264 17.4473 10.8945C17.7861 10.7251 18 10.3789 18 10C18 9.62109 17.7861 9.2749 17.4473 9.10547ZM12 13.6641C11.2842 12.2148 10.2314 10.9609 8.91602 10C10.2314 9.03906 11.2842 7.78516 12 6.33594C12.7158 7.78516 13.7686 9.03906 15.084 10C13.7686 10.9609 12.7158 12.2148 12 13.6641Z" fill="#3C424F"/>
</svg>
