<?xml version="1.0" encoding="UTF-8"?><svg id="Layer_1-2" xmlns="http://www.w3.org/2000/svg" viewBox="0 0 64 64"><g id="Lipstick"><path d="m18,8c0-.37890625-.21386719-.72509766-.55273438-.89453125-2.26416016-1.13183594-3.84716797-3.20458984-4.34375-5.68701172l-.12304688-.61474609c-.09326172-.46728516-.50390625-.80371094-.98046875-.80371094s-.88720703.33642578-.98046875.80371094l-.12304688.61474609c-.49658203,2.48242188-2.07958984,4.55517578-4.34375,5.68701172-.33886719.16943359-.55273438.515625-.55273438.89453125s.21386719.72509766.55273438.89453125c2.26416016,1.13183594,3.84716797,3.20458984,4.34375,5.68701172l.12304688.61474609c.09326172.46728516.50390625.80371094.98046875.80371094s.88720703-.33642578.98046875-.80371094l.12304688-.61474609c.49658203-2.48242188,2.07958984-4.55517578,4.34375-5.68701172.33886719-.16943359.55273438-.515625.55273438-.89453125Zm-6,3.66308594c-.71582031-1.44873047-1.76855469-2.70214844-3.08349609-3.66308594,1.31494141-.9609375,2.36767578-2.21435547,3.08349609-3.66308594.71582031,1.44873047,1.76855469,2.70214844,3.08349609,3.66308594-1.31494141.9609375-2.36767578,2.21435547-3.08349609,3.66308594Z" style="stroke-width:0px;"/><path d="m57.44726562,23.10546875c-2.26416016-1.13183594-3.84716797-3.20458984-4.34375-5.68701172l-.12304688-.61474609c-.09326172-.46728516-.50390625-.80371094-.98046875-.80371094s-.88720703.33642578-.98046875.80371094l-.12304688.61474609c-.49658203,2.48242188-2.07958984,4.55517578-4.34375,5.68701172-.33886719.16943359-.55273438.515625-.55273438.89453125s.21386719.72509766.55273438.89453125c2.26416016,1.13183594,3.84716797,3.20458984,4.34375,5.68701172l.12304688.61474609c.09326172.46728516.50390625.80371094.98046875.80371094s.88720703-.33642578.98046875-.80371094l.12304688-.61474609c.49658203-2.48242188,2.07958984-4.55517578,4.34375-5.68701172.33886719-.16943359.55273438-.515625.55273438-.89453125s-.21386719-.72509766-.55273438-.89453125Zm-5.44726562,4.55761719c-.71582031-1.44873047-1.76855469-2.70214844-3.08349609-3.66308594,1.31494141-.9609375,2.36767578-2.21435547,3.08349609-3.66308594.71582031,1.44873047,1.76855469,2.70214844,3.08349609,3.66308594-1.31494141.9609375-2.36767578,2.21435547-3.08349609,3.66308594Z" style="stroke-width:0px;"/><path d="m46,47h-1v-4c0-.55224609-.44775391-1-1-1v-7c0-.55224609-.44775391-1-1-1h-1V1c0-.5882287-.50679-1-1-1h-4.39746094c-5.70898438,0-11.09814453,2.7734375-14.41650391,7.41894531-.09392199.1317067-.18603516.38533308-.18603516.58105469v26h-1c-.55224609,0-1,.44775391-1,1v7c-.55224609,0-1,.44775391-1,1v4h-1c-.55224609,0-1,.44775391-1,1v13c0,1.65429688,1.34570312,3,3,3h24c1.65429688,0,3-1.34570312,3-3v-13c0-.55224609-.44775391-1-1-1ZM36.60253906,2h2.50146484c-3.38476562,4.33984375-8.87646484,6.43017578-14.34375,5.38427734,2.96533203-3.39550781,7.2890625-5.38427734,11.84228516-5.38427734Zm-12.60253906,7.26269531c1.18945312.25592041,2.38146973.38867188,3.56005859.38867188,4.74981689,0,9.26678467-2.02642822,12.43994141-5.60888672v29.95751953h-16V9.26269531Zm-2,26.73730469h20v6h-20v-6Zm-1,8h22v3h-22v-3Zm23,18h-24c-.55126953,0-1-.44873047-1-1v-3h16c.55224609,0,1-.44775391,1-1s-.44775391-1-1-1h-16v-7h26v7h-6c-.55224609,0-1,.44775391-1,1s.44775391,1,1,1h6v3c0,.55126953-.44873047,1-1,1Z" style="stroke-width:0px;"/></g></svg>