<svg width="64" height="64" viewBox="0 0 64 64" fill="none" xmlns="http://www.w3.org/2000/svg">
<path d="M63.967 14.744C63.8694 14.3758 63.5715 14.0956 63.1985 14.0204L62.1038 13.7992C60.4622 13.475 58.9065 12.8597 57.4788 11.9711C57.011 11.6805 56.3938 11.8221 56.1018 12.2919C55.8098 12.7606 55.9534 13.3773 56.4221 13.6693C57.7727 14.5101 59.2258 15.1371 60.7483 15.5384C56.0335 19.0736 50.2922 21.0003 44.3704 21.0003H42.9602C40.4387 21.0003 37.9163 20.6463 35.4651 19.9491L32.2747 19.0389C32.095 18.9872 31.9055 18.9872 31.7258 19.0389L28.5364 19.9486C26.0842 20.6463 23.5618 21.0003 21.0403 21.0003H19.6301C13.7083 21.0003 7.96607 19.0731 3.25025 15.537C5.61353 14.9115 7.81177 13.7455 9.66138 12.1302C11.1614 10.808 12.8811 9.7772 14.7698 9.06724C18.2092 7.78209 21.9846 7.65757 25.4797 8.71714C27.0501 9.19273 28.5393 9.89488 29.9045 10.8016L31.4446 11.8314C31.7805 12.057 32.22 12.057 32.5559 11.8314L34.096 10.8021C37.1379 8.76988 40.8293 7.79332 44.4846 8.03941C45.0335 8.07847 45.5129 7.66148 45.551 7.11021C45.5881 6.55943 45.1721 6.08189 44.6213 6.04429C40.5247 5.76255 36.3938 6.86216 32.9846 9.13951L32.0002 9.79722L31.0139 9.13755C29.4836 8.12095 27.8167 7.33531 26.0598 6.80308C22.1477 5.61607 17.9182 5.75474 14.0686 7.19419C11.9495 7.99058 10.0217 9.14683 8.34205 10.6268C6.51001 12.2274 4.28052 13.3246 1.89185 13.8002L0.802007 14.0204C0.42896 14.0956 0.131108 14.3758 0.0334521 14.744C-0.0642042 15.1117 0.055913 15.5028 0.342046 15.7533C1.06727 16.387 1.82221 16.9786 2.59949 17.5339L5.01978 22.8646C6.4397 25.9847 8.62037 28.7494 11.3284 30.8607C13.0618 32.204 14.9758 33.2386 17.0139 33.9359C19.0598 34.6424 21.2083 35.0003 23.4006 35.0003C25.9251 35.0003 28.386 34.5252 30.7092 33.5897L32.0002 33.0765L33.2893 33.5892C34.1487 33.933 35.0198 34.2162 35.8782 34.4305C36.4094 34.5643 36.9563 34.2377 37.0901 33.703C37.2249 33.1669 36.8987 32.6239 36.3626 32.4901C35.592 32.2977 34.8079 32.0423 34.0295 31.7313L32.3694 31.0711C32.1331 30.9764 31.8674 30.9764 31.6311 31.0711L29.967 31.7328C26.0618 33.3045 21.6194 33.409 17.6633 32.0443C15.8323 31.4178 14.1126 30.4877 12.5559 29.2816C10.1028 27.3695 8.1272 24.8641 6.84009 22.037L5.66742 19.4541C9.92731 21.7646 14.7205 23.0003 19.6301 23.0003H21.0403C22.6312 23.0003 24.2197 22.8534 25.7949 22.5933L31.6282 24.9286C31.7483 24.9764 31.8743 25.0003 32.0002 25.0003C32.1262 25.0003 32.2522 24.9764 32.3723 24.9286L38.2055 22.5933C39.7805 22.8533 41.3692 23.0003 42.9602 23.0003H44.3704C49.2801 23.0003 54.0732 21.7645 58.3331 19.4541L57.1604 22.0365C55.8733 24.8641 53.8977 27.3695 51.4465 29.2801C50.8079 29.7757 50.1448 30.2206 49.4758 30.6014C48.9954 30.8749 48.8274 31.4852 49.1008 31.9652C49.2854 32.2889 49.6233 32.4706 49.971 32.4706C50.1389 32.4706 50.3088 32.4286 50.4641 32.3397C51.2161 31.912 51.9592 31.4139 52.6751 30.8587C55.3801 28.7494 57.5608 25.9847 58.9807 22.8641L61.401 17.5339C62.1783 16.9786 62.9332 16.387 63.6585 15.7533C63.9446 15.5028 64.0647 15.1117 63.967 14.744ZM32.0002 22.9232L29.2537 21.8236L32.0002 21.0404L34.7466 21.8237L32.0002 22.9232Z" fill="#ff6c8d"/>
<path d="M47.5527 8.89453C49.8164 10.0264 51.3994 12.0991 51.8965 14.5815L52.0195 15.1963C52.1133 15.6636 52.5234 16 53 16C53.4766 16 53.8867 15.6636 53.9805 15.1963L54.1035 14.5815C54.6006 12.0991 56.1836 10.0264 58.4473 8.89453C58.7861 8.7251 59 8.37891 59 8C59 7.62109 58.7861 7.2749 58.4473 7.10547C56.1836 5.97363 54.6006 3.90088 54.1035 1.41846L53.9805 0.803711C53.8867 0.336426 53.4766 0 53 0C52.5234 0 52.1133 0.336426 52.0195 0.803711L51.8965 1.41846C51.3994 3.90088 49.8164 5.97363 47.5527 7.10547C47.2139 7.2749 47 7.62109 47 8C47 8.37891 47.2139 8.7251 47.5527 8.89453ZM53 4.33594C53.7158 5.78516 54.7686 7.03906 56.084 8C54.7686 8.96094 53.7158 10.2148 53 11.6641C52.2842 10.2148 51.2314 8.96094 49.916 8C51.2314 7.03906 52.2842 5.78516 53 4.33594Z" fill="#ff6c8d"/>
<path d="M19.4473 44.1055C17.1836 42.9736 15.6006 40.9009 15.1035 38.4185L14.9805 37.8037C14.8867 37.3364 14.4766 37 14 37C13.5234 37 13.1133 37.3364 13.0195 37.8037L12.8965 38.4185C12.3994 40.9009 10.8164 42.9736 8.55273 44.1055C8.21387 44.2749 8 44.6211 8 45C8 45.3789 8.21387 45.7251 8.55273 45.8945C10.8164 47.0264 12.3994 49.0991 12.8965 51.5815L13.0195 52.1963C13.1133 52.6636 13.5234 53 14 53C14.4766 53 14.8867 52.6636 14.9805 52.1963L15.1035 51.5815C15.6006 49.0991 17.1836 47.0264 19.4473 45.8945C19.7861 45.7251 20 45.3789 20 45C20 44.6211 19.7861 44.2749 19.4473 44.1055ZM14 48.6641C13.2842 47.2148 12.2314 45.9609 10.916 45C12.2314 44.0391 13.2842 42.7852 14 41.3359C14.7158 42.7852 15.7686 44.0391 17.084 45C15.7686 45.9609 14.7158 47.2148 14 48.6641Z" fill="#ff6c8d"/>
<path d="M48.9998 48H46.9998V45C46.9998 44.4478 46.5525 44 45.9998 44H43.9998V37.879C46.2791 37.3215 47.9998 34.8976 47.9998 32C47.9998 28.6914 45.7566 26 42.9998 26C40.2429 26 37.9998 28.6914 37.9998 32C37.9998 34.8976 39.7204 37.3215 41.9998 37.879V44H39.9998C39.447 44 38.9998 44.4478 38.9998 45V48H36.9998C36.7224 48 36.4568 48.1152 36.2683 48.3184C36.0789 48.5215 35.9822 48.7944 36.0027 49.0713L37.0027 63.0713C37.0398 63.5947 37.4754 64 37.9998 64H47.9998C48.5242 64 48.9597 63.5947 48.9968 63.0713L49.9968 49.0713C50.0174 48.7944 49.9207 48.5215 49.7312 48.3184C49.5427 48.1152 49.2771 48 48.9998 48ZM39.9998 32C39.9998 29.7944 41.3455 28 42.9998 28C44.6541 28 45.9998 29.7944 45.9998 32C45.9998 34.2056 44.6541 36 42.9998 36C41.3455 36 39.9998 34.2056 39.9998 32ZM40.9998 46H44.9998V48H40.9998V46ZM47.0691 62H38.9304L38.074 50H47.9256L47.0691 62Z" fill="#ff6c8d"/>
</svg>
