<svg width="120" height="58" viewBox="0 0 120 58" fill="none" xmlns="http://www.w3.org/2000/svg">
<path fill-rule="evenodd" clip-rule="evenodd" d="M13.5609 0C13.5609 0 18.909 6.80338 22.2083 14.9355C25.7552 23.6783 27.2709 34.8247 27.2709 41.2679C27.2709 49.9468 22.2398 58 13.5609 58C4.88171 58 0 49.9468 0 41.2679C0 35.2957 1.41067 23.8659 4.66187 15.5372C8.1806 6.52262 13.5609 0 13.5609 0Z" fill="#FF6C8D"/>
<path fill-rule="evenodd" clip-rule="evenodd" d="M27.1045 37.1523C27.2167 38.6607 27.2709 40.0486 27.2709 41.2681C27.2709 49.9469 22.2398 58.0001 13.5609 58.0001C4.88171 58.0001 0 49.9469 0 41.2681C0 40.0966 0.0541767 38.715 0.166117 37.1881C1.08716 44.7439 5.8097 51.1671 13.5609 51.1671C21.3242 51.1671 26.1687 44.7236 27.1045 37.1523Z" fill="black" fill-opacity="0.25"/>
<path fill-rule="evenodd" clip-rule="evenodd" d="M13.6027 15.667C13.6027 15.667 15.2568 17.7713 16.6066 20.5302C16.8337 20.9943 17.052 21.4768 17.2526 21.971C18.7497 25.6611 19.3894 30.3658 19.3894 33.0853C19.3894 36.7485 17.2659 40.1476 13.6027 40.1476C9.93938 40.1476 7.87891 36.7485 7.87891 33.0853C7.87891 30.5646 8.47432 25.7403 9.84658 22.2249C11.3318 18.4201 13.6027 15.667 13.6027 15.667Z" fill="url(#paint0_linear_13_275)" stroke="#75434E" stroke-miterlimit="1.5" stroke-linecap="round" stroke-linejoin="round"/>
<path d="M50.64 7.6C58.5547 7.6 62.512 11.0027 62.512 17.808V29.136C62.512 29.3707 62.4267 29.5733 62.256 29.744C62.0853 29.9147 61.8827 30 61.648 30H54.736C54.5013 30 54.2987 29.9147 54.128 29.744C53.9573 29.5733 53.872 29.3707 53.872 29.136V17.84C53.872 16.624 53.616 15.76 53.104 15.248C52.6133 14.736 51.792 14.48 50.64 14.48H40.176C39.9413 14.48 39.7387 14.3947 39.568 14.224C39.3973 14.0533 39.312 13.8507 39.312 13.616V8.464C39.312 8.22933 39.3973 8.02667 39.568 7.856C39.7387 7.68533 39.9413 7.6 40.176 7.6H50.64ZM47.344 29.136C47.344 29.3707 47.2587 29.5733 47.088 29.744C46.9173 29.9147 46.7147 30 46.48 30H40.208C39.9733 30 39.7707 29.9147 39.6 29.744C39.4293 29.5733 39.344 29.3707 39.344 29.136L39.312 16.944C39.312 16.7093 39.3973 16.5067 39.568 16.336C39.7387 16.1653 39.9413 16.08 40.176 16.08H46.48C46.7147 16.08 46.9173 16.1653 47.088 16.336C47.2587 16.5067 47.344 16.7093 47.344 16.944V29.136ZM72.2275 7.28C75.9822 7.28 78.8942 8.144 80.9635 9.872C83.0542 11.6 84.0995 14.2453 84.0995 17.808V29.136C84.0995 29.3707 84.0142 29.5733 83.8435 29.744C83.6728 29.9147 83.4702 30 83.2355 30H69.7315C69.4968 30 69.2942 29.9147 69.1235 29.744C68.9528 29.5733 68.8675 29.3707 68.8675 29.136V23.984C68.8675 23.7493 68.9528 23.5467 69.1235 23.376C69.2942 23.2053 69.4968 23.12 69.7315 23.12H75.4595V17.84C75.4595 16.624 75.2035 15.76 74.6915 15.248C74.2008 14.736 73.3795 14.48 72.2275 14.48H69.7315C69.4968 14.48 69.2942 14.3947 69.1235 14.224C68.9528 14.0533 68.8675 13.8507 68.8675 13.616V8.144C68.8675 7.90933 68.9528 7.70667 69.1235 7.536C69.2942 7.36533 69.4968 7.28 69.7315 7.28H72.2275ZM110.135 29.136C110.135 29.3707 110.05 29.5733 109.879 29.744C109.708 29.9147 109.506 30 109.271 30H102.359C102.124 30 101.922 29.9147 101.751 29.744C101.58 29.5733 101.495 29.3707 101.495 29.136V14.48H94.167C93.9323 14.48 93.7297 14.3947 93.559 14.224C93.3883 14.0533 93.303 13.8507 93.303 13.616V8.464C93.303 8.22933 93.3883 8.02667 93.559 7.856C93.7297 7.68533 93.9323 7.6 94.167 7.6H112.663C112.898 7.6 113.1 7.68533 113.271 7.856C113.442 8.02667 113.527 8.22933 113.527 8.464V13.616C113.527 13.8507 113.442 14.0533 113.271 14.224C113.1 14.3947 112.898 14.48 112.663 14.48H110.135V29.136Z" fill="#3C424F"/>
<path d="M51.2877 40.0157V46.3796H48.6803V40.0157H51.2877ZM63.2879 52.1931C61.511 52.1931 60.2041 51.7811 59.3671 50.957C58.5302 50.1265 58.1117 48.8518 58.1117 47.1329V40.0157H60.7191V47.0749C60.7191 48.0342 60.9251 48.7359 61.3371 49.1802C61.7492 49.6244 62.4059 49.8465 63.3072 49.8465C63.9638 49.8465 64.5207 49.721 64.9778 49.4699C65.4349 49.2124 65.7826 48.7681 66.0208 48.1372C66.259 47.4998 66.3781 46.6178 66.3781 45.4912C66.3781 44.3774 66.2526 43.5469 66.0015 42.9997C65.7504 42.446 65.3351 42.1692 64.7557 42.1692C64.1956 42.1692 63.6098 42.3527 62.9981 42.7196V40.3537C63.6033 39.9931 64.334 39.8129 65.1903 39.8129C66.568 39.8129 67.5562 40.2635 68.155 41.1649C68.7601 42.0597 69.0627 43.4954 69.0627 45.4719C69.0627 47.8024 68.5992 49.5053 67.6721 50.5804C66.7515 51.6556 65.2901 52.1931 63.2879 52.1931ZM77.992 40.0157V52H75.3846V40.0157H77.992ZM87.5199 40.0157V46.3796H84.9125V40.0157H87.5199ZM104.725 49.663V52H93.5521V49.663H100.833V45.3946C100.833 44.268 100.621 43.4793 100.196 43.0287C99.7776 42.578 99.0598 42.3527 98.0426 42.3527H94.006V40.0157H98.0812C99.9611 40.0157 101.323 40.4084 102.166 41.1938C103.016 41.9793 103.441 43.2669 103.441 45.0566V49.663H104.725Z" fill="#FF6C8D"/>
<defs>
<linearGradient id="paint0_linear_13_275" x1="13.6341" y1="16.6691" x2="13.6341" y2="27.9073" gradientUnits="userSpaceOnUse">
<stop stop-color="#D9D9D9"/>
<stop offset="1" stop-color="#DBA281"/>
</linearGradient>
</defs>
</svg>
