<svg width="64" height="64" viewBox="0 0 64 64" fill="none" xmlns="http://www.w3.org/2000/svg">
<path d="M26.8929 36.9656L26.6289 37.0656L27.3709 38.9236L27.6349 38.8176C30.4453 37.7408 33.5545 37.7408 36.3649 38.8176L36.6289 38.9236L37.3709 37.0656L37.1069 36.9656C33.8196 35.7016 30.1803 35.7016 26.8929 36.9656Z" fill="#3C424F"/>
<path d="M33 22H31V33H33V22Z" fill="#3C424F"/>
<path d="M60 1.99956V20.3506C59.9999 20.6727 59.9482 20.9927 59.847 21.2986L55.091 35.5656L47.671 47.1796C47.5572 47.359 47.4073 47.5129 47.2308 47.6313C47.0544 47.7497 46.8552 47.8302 46.646 47.8676C46.3474 47.9139 46.0418 47.8767 45.7631 47.7601C45.4843 47.6435 45.2433 47.452 45.0667 47.2068C44.8901 46.9617 44.7847 46.6724 44.7624 46.3711C44.74 46.0697 44.8015 45.7681 44.94 45.4996C46.68 42.3416 49.878 36.4786 49.878 36.4786C49.915 36.41 49.9442 36.3376 49.965 36.2626L50.774 33.2976L53.953 23.2976L52.047 22.6996L48.86 32.7136H48.868C48.863 32.7276 48.852 32.7376 48.849 32.7516C48.7842 32.9909 48.6695 33.2138 48.5124 33.4056C48.3553 33.5974 48.1593 33.7538 47.9374 33.8644C47.7155 33.975 47.4727 34.0374 47.2249 34.0474C46.9772 34.0575 46.7301 34.0149 46.5 33.9226C46.119 33.7699 45.8035 33.4887 45.6081 33.1278C45.4127 32.7669 45.3497 32.349 45.43 31.9466L46.98 24.1996C46.9934 24.1337 47.0001 24.0667 47 23.9996V21.0706C46.9943 18.9592 47.4074 16.8678 48.2154 14.9171C49.0233 12.9665 50.2101 11.1955 51.707 9.70656C51.8946 9.51906 51.9999 9.26475 52 8.99956V1.99956H50V8.59156C49.3072 9.32337 48.6764 10.1114 48.114 10.9476C46.4129 8.20522 44.0401 5.94236 41.2202 4.3732C38.4003 2.80403 35.2266 1.98047 31.9995 1.98047C28.7724 1.98047 25.5987 2.80403 22.7788 4.3732C19.9589 5.94236 17.5861 8.20522 15.885 10.9476C15.323 10.1114 14.6925 9.32336 14 8.59156V1.99956H12V8.99956C12.0001 9.26475 12.1055 9.51906 12.293 9.70656C13.7899 11.1955 14.9767 12.9665 15.7846 14.9171C16.5926 16.8678 17.0057 18.9592 17 21.0706V23.9996C16.9999 24.0667 17.0066 24.1337 17.02 24.1996L18.569 31.9506C18.6496 32.353 18.5866 32.771 18.3912 33.132C18.1957 33.4929 17.8801 33.774 17.499 33.9266C17.2691 34.0188 17.0222 34.0613 16.7747 34.0513C16.5272 34.0413 16.2846 33.9791 16.0628 33.8687C15.8411 33.7583 15.6452 33.6022 15.488 33.4107C15.3309 33.2192 15.216 32.9966 15.151 32.7576C15.151 32.7436 15.137 32.7336 15.132 32.7196H15.14L11.953 22.6996L10.047 23.3056L13.226 33.3056L14.035 36.2706C14.0558 36.3456 14.085 36.418 14.122 36.4866C14.122 36.4866 17.322 42.3496 19.06 45.5076C19.2481 45.8555 19.3011 46.2606 19.2088 46.6452C19.1165 47.0298 18.8855 47.3668 18.56 47.5916C18.3901 47.7186 18.1959 47.8093 17.9895 47.8582C17.7831 47.9071 17.5688 47.913 17.36 47.8756C17.1507 47.8385 16.9514 47.7581 16.7749 47.6397C16.5984 47.5212 16.4486 47.3672 16.335 47.1876L8.909 35.5656L4.154 21.2996C4.05198 20.9936 3.99998 20.6731 4 20.3506V1.99956H2V20.3506C1.99966 20.888 2.08645 21.4219 2.257 21.9316L7.057 36.3156C7.08235 36.3941 7.11763 36.469 7.162 36.5386L14.649 48.2566C14.9117 48.6667 15.256 49.0185 15.6605 49.2899C16.0649 49.5614 16.5209 49.7468 17 49.8346C17.2052 49.8725 17.4134 49.8915 17.622 49.8916C18.4123 49.8869 19.1797 49.625 19.808 49.1456C19.847 49.1156 19.878 49.0786 19.916 49.0456C19.988 49.1266 20.055 49.2156 20.128 49.2956C20.7038 49.9284 21.3298 50.5137 22 51.0456V54.8396C21.9991 56.8262 21.6787 58.7997 21.051 60.6846C21.0011 60.8348 20.9876 60.9948 21.0117 61.1513C21.0357 61.3078 21.0965 61.4564 21.1892 61.5848C21.2819 61.7131 21.4037 61.8177 21.5446 61.8898C21.6856 61.9619 21.8417 61.9995 22 61.9996H42C42.1583 61.9995 42.3144 61.9619 42.4554 61.8898C42.5963 61.8177 42.7181 61.7131 42.8108 61.5848C42.9035 61.4564 42.9643 61.3078 42.9883 61.1513C43.0124 60.9948 42.9989 60.8348 42.949 60.6846C42.3213 58.7997 42.0009 56.8262 42 54.8396V51.0466C42.6682 50.5174 43.2925 49.9352 43.867 49.3056C43.945 49.2206 44.013 49.1296 44.089 49.0436C44.143 49.0886 44.189 49.1436 44.244 49.1826C44.8588 49.6428 45.606 49.8916 46.374 49.8916C46.584 49.8914 46.7935 49.8723 47 49.8346C47.4797 49.7472 47.9362 49.562 48.3412 49.2905C48.7462 49.019 49.0909 48.6671 49.354 48.2566L56.841 36.5386C56.8836 36.4688 56.9172 36.3938 56.941 36.3156L61.741 21.9316C61.9118 21.4219 61.9992 20.8881 62 20.3506V1.99956H60ZM46.719 13.3996C46.46 13.0816 46.19 12.7846 45.919 12.4936L46.419 11.9936C46.604 12.2936 46.779 12.5936 46.947 12.9076C46.861 13.0736 46.8 13.2396 46.719 13.3996ZM45.248 10.3356L44.486 11.0976C43.7394 10.4406 42.9416 9.84438 42.1 9.31456L43.205 8.21456C43.9466 8.86131 44.6302 9.57168 45.248 10.3376V10.3356ZM23.729 8.31456L22.4 6.97956C23.3787 6.30408 24.4262 5.73423 25.525 5.27956L26.5 7.22456C25.5482 7.51188 24.6215 7.87642 23.729 8.31456ZM28.492 6.74556L27.435 4.63256C28.5992 4.3116 29.7943 4.11582 31 4.04856V6.44056C30.1581 6.48542 29.3201 6.58732 28.492 6.74556ZM33 4.03456C34.2091 4.10267 35.4076 4.29945 36.575 4.62156L35.51 6.74656C34.6812 6.58829 33.8426 6.48606 33 6.44056V4.03456ZM38.481 5.27956C39.5824 5.73088 40.6326 6.29807 41.614 6.97156L40.27 8.31456C39.38 7.87625 38.4556 7.51169 37.506 7.22456L38.481 5.27956ZM20.81 8.22356L21.9 9.31456C21.0578 9.84413 20.2598 10.4411 19.514 11.0996L18.763 10.3476C19.1421 9.86945 19.547 9.41244 19.976 8.97856C20.243 8.71156 20.528 8.46956 20.81 8.22356ZM17.585 11.9996L18.085 12.4996C17.812 12.7926 17.542 13.0896 17.285 13.4056C17.209 13.2446 17.143 13.0786 17.063 12.9196C17.227 12.6046 17.4 12.2996 17.585 11.9996ZM40.662 59.9996H23.338C23.7769 58.3146 23.9994 56.5807 24 54.8396V52.4396C24.4912 52.723 24.9969 52.9807 25.515 53.2116C27.8189 54.2351 30.3324 54.699 32.8499 54.5651C35.3674 54.4313 37.8176 53.7036 40 52.4416V54.8416C40.0008 56.582 40.2233 58.3153 40.662 59.9996ZM42.386 47.9616C41.0752 49.4229 39.4696 50.5899 37.675 51.3856C35.8876 52.1754 33.9551 52.5833 32.001 52.5833C30.0469 52.5833 28.1144 52.1754 26.327 51.3856C24.5284 50.5887 22.9196 49.4188 21.607 47.9536C21.423 47.7536 21.256 47.5426 21.083 47.3346C21.231 46.874 21.2833 46.3881 21.2367 45.9066C21.1901 45.4251 21.0456 44.9582 20.812 44.5346C19.367 41.9116 16.912 37.4186 16.128 35.9786C16.7334 36.0963 17.3584 36.0632 17.9479 35.8821C18.5374 35.701 19.0733 35.3775 19.5081 34.9403C19.943 34.503 20.2635 33.9654 20.4414 33.3749C20.6193 32.7845 20.649 32.1593 20.528 31.5546L19.851 28.1666C20.735 28.2536 21.625 28.3126 22.519 28.3126C24.0779 28.3131 25.634 28.1792 27.17 27.9126L26.826 25.9426C24.3848 26.357 21.896 26.4116 19.439 26.1046L19 23.8996V22.1756C21.3937 20.9487 24.1602 20.6633 26.754 21.3756L27.246 19.4376C24.4952 18.6975 21.5767 18.8888 18.946 19.9816C18.8602 18.4892 18.5894 17.0132 18.14 15.5876C18.6401 14.8728 19.1951 14.1981 19.8 13.5696C19.853 13.5096 19.914 13.4496 19.976 13.3866C20.038 13.3236 20.076 13.2866 20.176 13.1956C21.3117 12.0888 22.6001 11.1506 24.002 10.4096C25.3128 9.70224 26.7146 9.17834 28.168 8.85256C30.6906 8.26257 33.3154 8.26257 35.838 8.85256C37.2901 9.17996 38.6905 9.70484 40 10.4126C41.4061 11.1579 42.6982 12.1008 43.837 13.2126C43.971 13.3376 44.094 13.4616 44.232 13.6126C44.8245 14.23 45.3675 14.893 45.856 15.5956C45.4066 17.0212 45.1358 18.4972 45.05 19.9896C42.4192 18.8971 39.5009 18.7059 36.75 19.4456L37.242 21.3836C39.8357 20.6703 42.6026 20.9558 44.996 22.1836V23.8996L44.536 26.1996C42.411 26.3849 40.2711 26.2986 38.168 25.9426L37.824 27.9136C39.3434 28.1748 40.8823 28.3057 42.424 28.3046C42.994 28.3046 43.563 28.2826 44.13 28.2466L43.469 31.5526C43.348 32.1573 43.3777 32.7825 43.5556 33.3729C43.7335 33.9634 44.054 34.501 44.4889 34.9383C44.9237 35.3755 45.4596 35.699 46.0491 35.8801C46.6386 36.0611 47.2636 36.0943 47.869 35.9766C47.083 37.4166 44.631 41.9096 43.185 44.5326C42.9516 44.9552 42.8075 45.4213 42.7618 45.9019C42.716 46.3826 42.7695 46.8675 42.919 47.3266C42.746 47.5396 42.577 47.7526 42.386 47.9616Z" fill="#3C424F"/>
<path d="M13.4473 53.1055C11.1836 51.9736 9.60059 49.9009 9.10352 47.4185L8.98047 46.8037C8.88672 46.3364 8.47656 46 8 46C7.52344 46 7.11328 46.3364 7.01953 46.8037L6.89648 47.4185C6.39941 49.9009 4.81641 51.9736 2.55273 53.1055C2.21387 53.2749 2 53.6211 2 54C2 54.3789 2.21387 54.7251 2.55273 54.8945C4.81641 56.0264 6.39941 58.0991 6.89648 60.5815L7.01953 61.1963C7.11328 61.6636 7.52344 62 8 62C8.47656 62 8.88672 61.6636 8.98047 61.1963L9.10352 60.5815C9.60059 58.0991 11.1836 56.0264 13.4473 54.8945C13.7861 54.7251 14 54.3789 14 54C14 53.6211 13.7861 53.2749 13.4473 53.1055ZM8 57.6641C7.28418 56.2148 6.23145 54.9609 4.91602 54C6.23145 53.0391 7.28418 51.7852 8 50.3359C8.71582 51.7852 9.76855 53.0391 11.084 54C9.76855 54.9609 8.71582 56.2148 8 57.6641Z" fill="#3C424F"/>
<path d="M61.4473 53.1055C59.1836 51.9736 57.6006 49.9009 57.1035 47.4185L56.9805 46.8037C56.8867 46.3364 56.4766 46 56 46C55.5234 46 55.1133 46.3364 55.0195 46.8037L54.8965 47.4185C54.3994 49.9009 52.8164 51.9736 50.5527 53.1055C50.2139 53.2749 50 53.6211 50 54C50 54.3789 50.2139 54.7251 50.5527 54.8945C52.8164 56.0264 54.3994 58.0991 54.8965 60.5815L55.0195 61.1963C55.1133 61.6636 55.5234 62 56 62C56.4766 62 56.8867 61.6636 56.9805 61.1963L57.1035 60.5815C57.6006 58.0991 59.1836 56.0264 61.4473 54.8945C61.7861 54.7251 62 54.3789 62 54C62 53.6211 61.7861 53.2749 61.4473 53.1055ZM56 57.6641C55.2842 56.2148 54.2314 54.9609 52.916 54C54.2314 53.0391 55.2842 51.7852 56 50.3359C56.7158 51.7852 57.7686 53.0391 59.084 54C57.7686 54.9609 56.7158 56.2148 56 57.6641Z" fill="#3C424F"/>
</svg>
