<svg fill="#000000" xmlns="http://www.w3.org/2000/svg"  viewBox="0 0 16 16" width="16px" height="16px"><path d="M 8 1 C 7.1875 1 6.382813 1.550781 5.851563 2.601563 C 5.558594 3.183594 5.339844 3.941406 5.191406 4.875 C 3.871094 5.773438 3 7.285156 3 9 L 3 14 L 4 14 L 4 9 C 4 7.960938 4.398438 7.023438 5.046875 6.3125 C 5.023438 6.691406 5 7.070313 5 7.5 L 5 10.5 C 5 11.324219 5.675781 12 6.5 12 L 9.5 12 C 10.324219 12 11 11.324219 11 10.5 L 11 7.5 C 11 7.070313 10.976563 6.691406 10.953125 6.3125 C 11.601563 7.023438 12 7.960938 12 9 L 12 14 L 13 14 L 13 9 C 13 7.285156 12.128906 5.773438 10.808594 4.875 C 10.660156 3.941406 10.441406 3.183594 10.144531 2.601563 C 9.617188 1.550781 8.8125 1 8 1 Z M 8 2 C 8.386719 2 8.832031 2.21875 9.25 3.054688 C 9.671875 3.886719 10 5.316406 10 7.5 L 10 10.5 C 10 10.78125 9.78125 11 9.5 11 L 6.5 11 C 6.21875 11 6 10.78125 6 10.5 L 6 7.5 C 6 5.316406 6.328125 3.886719 6.75 3.054688 C 7.167969 2.21875 7.613281 2 8 2 Z"/></svg>