<svg width="74" height="74" viewBox="0 0 74 74" fill="none" xmlns="http://www.w3.org/2000/svg">
<path d="M37 5C33.2422 5 29.5205 7.54736 27.0635 12.4072C25.7085 15.0991 24.6968 18.604 24.0103 22.9219C17.9038 27.0772 15 34.0688 15 42V65.125H18V42C18 37.1943 20.126 31.1631 23.125 27.875C23.0166 29.6274 23.125 33.0752 23.125 35.0625V48.9375C23.125 52.7495 26.188 54.375 30 54.375H44C47.812 54.375 50.875 52.7495 50.875 48.9375V35.0625C50.875 33.0752 50.6084 29.6274 50.5 27.875C53.499 31.1631 55.5 37.1943 55.5 42V65.125H58.5V42C58.5 34.0688 56.0962 27.0772 49.9897 22.9219C49.3032 18.604 48.2915 15.0991 46.9185 12.4072C44.4795 7.54736 40.7578 5 37 5ZM37 7.375C38.7886 7.375 43.0669 10.0088 45 13.875C46.9512 17.7231 48 24.9634 48 35.0625V49.875C48 51.1758 45.2383 51.25 43.9375 51.25H28.5C27.1992 51.25 26 50.2383 26 48.9375V35.0625C26 24.9634 27.0488 18.2231 29 14.375C30.9331 10.5088 35.2114 7.375 37 7.375Z" fill="#3C424F"/>
<path d="M22.4473 9.10547C20.1836 7.97363 18.6006 5.90088 18.1035 3.41846L17.9805 2.80371C17.8867 2.33643 17.4766 2 17 2C16.5234 2 16.1133 2.33643 16.0195 2.80371L15.8965 3.41846C15.3994 5.90088 13.8164 7.97363 11.5527 9.10547C11.2139 9.2749 11 9.62109 11 10C11 10.3789 11.2139 10.7251 11.5527 10.8945C13.8164 12.0264 15.3994 14.0991 15.8965 16.5815L16.0195 17.1963C16.1133 17.6636 16.5234 18 17 18C17.4766 18 17.8867 17.6636 17.9805 17.1963L18.1035 16.5815C18.6006 14.0991 20.1836 12.0264 22.4473 10.8945C22.7861 10.7251 23 10.3789 23 10C23 9.62109 22.7861 9.2749 22.4473 9.10547ZM17 13.6641C16.2842 12.2148 15.2314 10.9609 13.916 10C15.2314 9.03906 16.2842 7.78516 17 6.33594C17.7158 7.78516 18.7686 9.03906 20.084 10C18.7686 10.9609 17.7158 12.2148 17 13.6641Z" fill="#3C424F"/>
<path d="M63.4473 17.1055C61.1836 15.9736 59.6006 13.9009 59.1035 11.4185L58.9805 10.8037C58.8867 10.3364 58.4766 10 58 10C57.5234 10 57.1133 10.3364 57.0195 10.8037L56.8965 11.4185C56.3994 13.9009 54.8164 15.9736 52.5527 17.1055C52.2139 17.2749 52 17.6211 52 18C52 18.3789 52.2139 18.7251 52.5527 18.8945C54.8164 20.0264 56.3994 22.0991 56.8965 24.5815L57.0195 25.1963C57.1133 25.6636 57.5234 26 58 26C58.4766 26 58.8867 25.6636 58.9805 25.1963L59.1035 24.5815C59.6006 22.0991 61.1836 20.0264 63.4473 18.8945C63.7861 18.7251 64 18.3789 64 18C64 17.6211 63.7861 17.2749 63.4473 17.1055ZM58 21.6641C57.2842 20.2148 56.2314 18.9609 54.916 18C56.2314 17.0391 57.2842 15.7852 58 14.3359C58.7158 15.7852 59.7686 17.0391 61.084 18C59.7686 18.9609 58.7158 20.2148 58 21.6641Z" fill="#3C424F"/>
</svg>
