<svg width="64" height="64" viewBox="0 0 64 64" fill="none" xmlns="http://www.w3.org/2000/svg">
<path d="M7.04475 4.93852C6.65575 4.96952 6.30675 5.22752 6.17575 5.62052C6.00175 6.14452 6.28475 6.71152 6.80875 6.88652C7.47075 7.10652 8.53675 7.39352 9.77075 7.72452C12.0448 8.33352 14.8748 9.09052 16.1048 9.69652C18.1698 10.7145 18.9608 12.8935 19.4608 14.8885C19.8868 16.5945 20.7858 18.2665 22.0938 19.7595C22.0938 19.7595 34.1778 35.9315 34.9258 36.0055C36.4198 38.1365 37.3258 39.4675 37.3418 39.4895C39.2928 42.2205 41.7078 44.6845 44.5198 46.8105C45.7808 47.7635 47.0398 48.7195 48.2928 49.6835C49.4908 50.6055 50.6108 51.6125 51.8318 52.5015C53.1608 53.4665 54.2648 53.9375 55.2048 53.9375H56.6348C57.3218 53.9375 57.9578 54.2155 58.3808 54.7045C58.7678 55.1515 58.9338 55.7255 58.8478 56.3215C58.7768 56.8175 58.7558 56.9525 56.3378 57.0055C55.8148 57.0165 55.2308 57.0295 54.6368 57.0625C53.6398 57.0625 51.8428 56.5395 50.1068 56.0345C47.5738 55.2995 44.9578 54.5385 43.0958 54.7535C42.0678 54.8715 41.2778 55.0035 40.2828 55.3355C39.4348 55.6175 38.4768 55.9385 37.2518 55.9385C36.8458 55.9385 36.3798 55.9205 36.0118 55.7905C34.2168 55.1515 33.1448 52.6925 33.1448 50.6835C33.1448 49.0685 32.6388 47.8085 31.5528 46.7245C30.4808 45.6525 29.2698 44.8665 27.5938 43.7805C25.5288 42.4425 22.7018 40.6095 18.6038 37.1945C14.2648 33.5775 12.4698 29.1155 11.7288 26.0075C11.2188 23.8665 9.57975 22.2725 7.45275 21.8475L5.31075 21.4195C4.77175 21.3105 4.24175 21.6605 4.13475 22.2025C4.02675 22.7445 4.37775 23.2725 4.91975 23.3805L7.06275 23.8085C8.41575 24.0785 9.45775 25.0985 9.78475 26.4705C10.5958 29.8735 12.5608 34.7615 17.3238 38.7315C21.5138 42.2235 24.3998 44.0945 26.5078 45.4605C28.0808 46.4805 29.2178 47.2175 30.1408 48.1405C30.8448 48.8455 31.1458 49.6045 31.1458 50.6835C31.1458 53.3495 32.6178 56.7065 35.3438 57.6775C35.9988 57.9105 36.6758 57.9405 37.2518 57.9405C38.8008 57.9405 39.9748 57.5485 40.9238 57.2315C41.7508 56.9565 42.4058 56.8465 43.3238 56.7415C44.7888 56.5735 47.3168 57.3115 49.5508 57.9605C51.5048 58.5275 53.3498 59.0635 54.6888 59.0635C55.3128 59.0305 55.8778 59.0185 56.3828 59.0075C58.5898 58.9595 60.4938 58.9175 60.8258 56.6105C60.9958 55.4285 60.6658 54.2875 59.8928 53.3955C59.0898 52.4685 57.9018 51.9375 56.6348 51.9375H55.2048C54.9798 51.9375 54.3178 51.8355 53.0098 50.8865C52.0558 50.1945 51.1918 49.3975 50.2658 48.6735C48.7648 47.4995 47.2418 46.3695 45.7268 45.2185C43.0748 43.2145 40.8008 40.8975 38.9818 38.3515L23.5658 18.4055C22.4988 17.1855 21.7498 15.8015 21.3998 14.4015C21.0298 12.9245 20.1628 9.46652 16.9878 7.90152C15.5818 7.20852 12.7698 6.45552 10.2888 5.79052C9.08475 5.46852 8.04375 5.18852 7.43875 4.98752C7.30775 4.94352 7.17375 4.92852 7.04475 4.93852Z" fill="#3C424F"/>
<path d="M17.4473 49.1055C15.1836 47.9736 13.6006 45.9009 13.1035 43.4185L12.9805 42.8037C12.8867 42.3364 12.4766 42 12 42C11.5234 42 11.1133 42.3364 11.0195 42.8037L10.8965 43.4185C10.3994 45.9009 8.81641 47.9736 6.55273 49.1055C6.21387 49.2749 6 49.6211 6 50C6 50.3789 6.21387 50.7251 6.55273 50.8945C8.81641 52.0264 10.3994 54.0991 10.8965 56.5815L11.0195 57.1963C11.1133 57.6636 11.5234 58 12 58C12.4766 58 12.8867 57.6636 12.9805 57.1963L13.1035 56.5815C13.6006 54.0991 15.1836 52.0264 17.4473 50.8945C17.7861 50.7251 18 50.3789 18 50C18 49.6211 17.7861 49.2749 17.4473 49.1055ZM12 53.6641C11.2842 52.2148 10.2314 50.9609 8.91602 50C10.2314 49.0391 11.2842 47.7852 12 46.3359C12.7158 47.7852 13.7686 49.0391 15.084 50C13.7686 50.9609 12.7158 52.2148 12 53.6641Z" fill="#3C424F"/>
<path d="M50.4473 23.1055C48.1836 21.9736 46.6006 19.9009 46.1035 17.4185L45.9805 16.8037C45.8867 16.3364 45.4766 16 45 16C44.5234 16 44.1133 16.3364 44.0195 16.8037L43.8965 17.4185C43.3994 19.9009 41.8164 21.9736 39.5527 23.1055C39.2139 23.2749 39 23.6211 39 24C39 24.3789 39.2139 24.7251 39.5527 24.8945C41.8164 26.0264 43.3994 28.0991 43.8965 30.5815L44.0195 31.1963C44.1133 31.6636 44.5234 32 45 32C45.4766 32 45.8867 31.6636 45.9805 31.1963L46.1035 30.5815C46.6006 28.0991 48.1836 26.0264 50.4473 24.8945C50.7861 24.7251 51 24.3789 51 24C51 23.6211 50.7861 23.2749 50.4473 23.1055ZM45 27.6641C44.2842 26.2148 43.2314 24.9609 41.916 24C43.2314 23.0391 44.2842 21.7852 45 20.3359C45.7158 21.7852 46.7686 23.0391 48.084 24C46.7686 24.9609 45.7158 26.2148 45 27.6641Z" fill="#3C424F"/>
</svg>
