<?xml version="1.0" encoding="UTF-8"?><svg id="Layer_1-2" xmlns="http://www.w3.org/2000/svg" viewBox="0 0 64 64"><g id="Moisturizer"><path d="m55,30h-1v-4c0-1.65429688-1.34570312-3-3-3v-2c0-2.20556641-1.79443359-4-4-4h-2.07403564c-.36169434-3.63525391-2.64642334-6.82525635-6.13299561-8.31933594-1.23535156-.53027344-2.68505859-.16699219-3.52441406.88330078-1.88037109,2.35009766-4.36914062,4.13574219-7.19775391,5.1640625l-6.24743652,2.27197266h-4.82336426c-2.20556641,0-4,1.79443359-4,4v2c-1.65429688,0-3,1.34570312-3,3v4h-1c-2.20556641,0-4,1.79443359-4,4v26c0,2.20556641,1.79443359,4,4,4h46c2.20556641,0,4-1.79443359,4-4v-26c0-2.20556641-1.79443359-4-4-4ZM15,21c0-1.10302734.89697266-2,2-2h16c.55224609,0,1-.44775391,1-1s-.44775391-1-1-1h-5.3237915l1.07818604-.39208984c3.17333984-1.15380859,5.96630859-3.15771484,8.07568359-5.79492188.28027344-.34960938.76367188-.46923828,1.26123047-.25732422,2.67102051,1.14459229,4.48339844,3.61138916,4.83477783,6.44433594h-2.92608643c-.55224609,0-1,.44775391-1,1s.44775391,1,1,1h7c1.10302734,0,2,.89697266,2,2v2H15v-2Zm-3,5c0-.55126953.44873047-1,1-1h38c.55126953,0,1,.44873047,1,1v4H12v-4Zm-3,6h46c1.10302734,0,2,.89697266,2,2v1H7v-1c0-1.10302734.89697266-2,2-2Zm48,25H7v-20h50v20Zm-2,5H9c-1.10302734,0-2-.89697266-2-2v-1h50v1c0,1.10302734-.89697266,2-2,2Z" style="stroke-width:0px;"/><path d="m32,55c8.41113281,0,15-3.51416016,15-8s-6.58886719-8-15-8-15,3.51416016-15,8,6.58886719,8,15,8Zm0-14c7.77636719,0,13,3.10253906,13,6s-5.22363281,6-13,6-13-3.10253906-13-6,5.22363281-6,13-6Z" style="stroke-width:0px;"/><path d="m7,16c.4765625,0,.88720703-.33642578.98046875-.80371094.56005859-2.79882812,2.47607422-5.10205078,5.12597656-6.16162109l.265625-.10644531c.37939453-.15185547.62792969-.51953125.62792969-.92822266s-.24853516-.77636719-.62792969-.92822266l-.26660156-.10693359c-2.64892578-1.05908203-4.56494141-3.36230469-5.125-6.16113281-.09326172-.46728516-.50390625-.80371094-.98046875-.80371094s-.88720703.33642578-.98046875.80371094c-.56005859,2.79882812-2.47607422,5.10205078-5.12597656,6.16162109l-.265625.10644531c-.37939453.15185547-.62792969.51953125-.62792969.92822266s.24853516.77636719.62792969.92822266l.26660156.10693359c2.64892578,1.05908203,4.56494141,3.36230469,5.125,6.16113281.09326172.46728516.50390625.80371094.98046875.80371094Zm-3.73339844-8c1.59033203-.98535156,2.87548828-2.37402344,3.73339844-4.01904297.85791016,1.64550781,2.14306641,3.03417969,3.73339844,4.01904297-1.59033203.98535156-2.87548828,2.37402344-3.73339844,4.01904297-.85791016-1.64550781-2.14306641-3.03417969-3.73339844-4.01904297Z" style="stroke-width:0px;"/><path d="m63.37207031,12.07177734l-.26660156-.10693359c-2.64892578-1.05908203-4.56494141-3.36230469-5.125-6.16113281-.09326172-.46728516-.50390625-.80371094-.98046875-.80371094s-.88720703.33642578-.98046875.80371094c-.56005859,2.79882812-2.47607422,5.10205078-5.12597656,6.16162109l-.265625.10644531c-.37939453.15185547-.62792969.51953125-.62792969.92822266s.24853516.77636719.62792969.92822266l.26660156.10693359c2.64892578,1.05908203,4.56494141,3.36230469,5.125,6.16113281.09326172.46728516.50390625.80371094.98046875.80371094s.88720703-.33642578.98046875-.80371094c.56005859-2.79882812,2.47607422-5.10205078,5.12597656-6.16162109l.265625-.10644531c.37939453-.15185547.62792969-.51953125.62792969-.92822266s-.24853516-.77636719-.62792969-.92822266Zm-6.37207031,4.94726562c-.85791016-1.64550781-2.14306641-3.03417969-3.73339844-4.01904297,1.59033203-.98535156,2.87548828-2.37402344,3.73339844-4.01904297.85791016,1.64550781,2.14306641,3.03417969,3.73339844,4.01904297-1.59033203.98535156-2.87548828,2.37402344-3.73339844,4.01904297Z" style="stroke-width:0px;"/><path d="m27,46h10c.55224609,0,1-.44775391,1-1s-.44775391-1-1-1h-10c-.55224609,0-1,.44775391-1,1s.44775391,1,1,1Z" style="stroke-width:0px;"/><path d="m27,50h10c.55224609,0,1-.44775391,1-1s-.44775391-1-1-1h-10c-.55224609,0-1,.44775391-1,1s.44775391,1,1,1Z" style="stroke-width:0px;"/></g></svg>