<svg width="64" height="64" viewBox="0 0 64 64" fill="none" xmlns="http://www.w3.org/2000/svg">
<path d="M55 29.9995H54V25.9995C54 24.3452 52.6543 22.9995 51 22.9995V20.9995C51 18.794 49.2056 16.9995 47 16.9995H44.926C44.5643 13.3643 42.2795 10.1743 38.793 8.68019C37.5576 8.14991 36.1079 8.51319 35.2686 9.56349C33.3882 11.9136 30.8994 13.6992 28.0708 14.7275L21.8234 16.9995H17C14.7944 16.9995 13 18.794 13 20.9995V22.9995C11.3457 22.9995 10 24.3452 10 25.9995V29.9995H9C6.79443 29.9995 5 31.794 5 33.9995V59.9995C5 62.2051 6.79443 63.9995 9 63.9995H55C57.2056 63.9995 59 62.2051 59 59.9995V33.9995C59 31.794 57.2056 29.9995 55 29.9995ZM15 20.9995C15 19.8965 15.897 18.9995 17 18.9995H33C33.5522 18.9995 34 18.5518 34 17.9995C34 17.4473 33.5522 16.9995 33 16.9995H27.6762L28.7544 16.6074C31.9277 15.4536 34.7207 13.4497 36.8301 10.8125C37.1104 10.4629 37.5938 10.3433 38.0913 10.5552C40.7623 11.6998 42.5747 14.1666 42.9261 16.9995H40C39.4478 16.9995 39 17.4473 39 17.9995C39 18.5518 39.4478 18.9995 40 18.9995H47C48.103 18.9995 49 19.8965 49 20.9995V22.9995H15V20.9995ZM12 25.9995C12 25.4483 12.4487 24.9995 13 24.9995H51C51.5513 24.9995 52 25.4483 52 25.9995V29.9995H12V25.9995ZM9 31.9995H55C56.103 31.9995 57 32.8965 57 33.9995V34.9995H7V33.9995C7 32.8965 7.89697 31.9995 9 31.9995ZM57 56.9995H7V36.9995H57V56.9995ZM55 61.9995H9C7.89697 61.9995 7 61.1026 7 59.9995V58.9995H57V59.9995C57 61.1026 56.103 61.9995 55 61.9995Z" fill="#3C424F"/>
<path d="M32 55C40.4111 55 47 51.4858 47 47C47 42.5142 40.4111 39 32 39C23.5889 39 17 42.5142 17 47C17 51.4858 23.5889 55 32 55ZM32 41C39.7764 41 45 44.1025 45 47C45 49.8975 39.7764 53 32 53C24.2236 53 19 49.8975 19 47C19 44.1025 24.2236 41 32 41Z" fill="#3C424F"/>
<path d="M7 16C7.47656 16 7.88721 15.6636 7.98047 15.1963C8.54053 12.3975 10.4565 10.0942 13.1064 9.03467L13.3721 8.92822C13.7515 8.77637 14 8.40869 14 8C14 7.59131 13.7515 7.22363 13.3721 7.07178L13.1055 6.96484C10.4565 5.90576 8.54053 3.60254 7.98047 0.803711C7.88721 0.336426 7.47656 0 7 0C6.52344 0 6.11279 0.336426 6.01953 0.803711C5.45947 3.60254 3.54346 5.90576 0.893555 6.96533L0.62793 7.07178C0.248535 7.22363 0 7.59131 0 8C0 8.40869 0.248535 8.77637 0.62793 8.92822L0.894531 9.03516C3.54346 10.0942 5.45947 12.3975 6.01953 15.1963C6.11279 15.6636 6.52344 16 7 16ZM3.2666 8C4.85693 7.01465 6.14209 5.62598 7 3.98096C7.85791 5.62646 9.14307 7.01514 10.7334 8C9.14307 8.98535 7.85791 10.374 7 12.019C6.14209 10.3735 4.85693 8.98486 3.2666 8Z" fill="#3C424F"/>
<path d="M63.3721 12.0718L63.1055 11.9648C60.4565 10.9058 58.5405 8.60254 57.9805 5.80371C57.8872 5.33643 57.4766 5 57 5C56.5234 5 56.1128 5.33643 56.0195 5.80371C55.4595 8.60254 53.5435 10.9058 50.8936 11.9653L50.6279 12.0718C50.2485 12.2236 50 12.5913 50 13C50 13.4087 50.2485 13.7764 50.6279 13.9282L50.8945 14.0352C53.5435 15.0942 55.4595 17.3975 56.0195 20.1963C56.1128 20.6636 56.5234 21 57 21C57.4766 21 57.8872 20.6636 57.9805 20.1963C58.5405 17.3975 60.4565 15.0942 63.1064 14.0347L63.3721 13.9282C63.7515 13.7764 64 13.4087 64 13C64 12.5913 63.7515 12.2236 63.3721 12.0718ZM57 17.019C56.1421 15.3735 54.8569 13.9849 53.2666 13C54.8569 12.0146 56.1421 10.626 57 8.98096C57.8579 10.6265 59.1431 12.0151 60.7334 13C59.1431 13.9854 57.8579 15.374 57 17.019Z" fill="#3C424F"/>
<path d="M27 46H37C37.5522 46 38 45.5522 38 45C38 44.4478 37.5522 44 37 44H27C26.4478 44 26 44.4478 26 45C26 45.5522 26.4478 46 27 46Z" fill="#3C424F"/>
<path d="M27 50H37C37.5522 50 38 49.5522 38 49C38 48.4478 37.5522 48 37 48H27C26.4478 48 26 48.4478 26 49C26 49.5522 26.4478 50 27 50Z" fill="#3C424F"/>
</svg>
