<svg width="12" height="25" viewBox="0 0 12 25" fill="none" xmlns="http://www.w3.org/2000/svg">
<path fill-rule="evenodd" clip-rule="evenodd" d="M5.84521 0C5.84521 0 8.15041 2.93249 9.57253 6.43773C11.1014 10.2062 11.7547 15.0107 11.7547 17.7879C11.7547 21.5288 9.58614 25 5.84521 25C2.10419 25 0 21.5288 0 17.7879C0 15.2137 0.608048 10.287 2.00942 6.69708C3.52612 2.81147 5.84521 0 5.84521 0Z" fill="#FF6C8D"/>
<path fill-rule="evenodd" clip-rule="evenodd" d="M11.683 16.0127C11.7313 16.6628 11.7547 17.2611 11.7547 17.7867C11.7547 21.5276 9.58614 24.9988 5.84521 24.9988C2.10419 24.9988 0 21.5276 0 17.7867C0 17.2818 0.023352 16.6862 0.0716021 16.0281C0.468604 19.2849 2.50418 22.0535 5.84521 22.0535C9.19146 22.0535 11.2796 19.2762 11.683 16.0127Z" fill="black" fill-opacity="0.25"/>
<path fill-rule="evenodd" clip-rule="evenodd" d="M5.86363 6.75195C5.86363 6.75195 6.57662 7.65897 7.15842 8.84817C7.25629 9.04821 7.35042 9.25618 7.43685 9.46919C8.08215 11.0598 8.3579 13.0876 8.3579 14.2599C8.3579 15.8388 7.4426 17.3039 5.86363 17.3039C4.28462 17.3039 3.39648 15.8388 3.39648 14.2599C3.39648 13.1733 3.65313 11.0939 4.24462 9.57865C4.88479 7.93862 5.86363 6.75195 5.86363 6.75195Z" fill="url(#paint0_linear_13_276)" stroke="#75434E" stroke-width="0.5" stroke-miterlimit="1.5" stroke-linecap="round" stroke-linejoin="round"/>
<defs>
<linearGradient id="paint0_linear_13_276" x1="5.87719" y1="7.18389" x2="5.87719" y2="12.0279" gradientUnits="userSpaceOnUse">
<stop stop-color="#D9D9D9"/>
<stop offset="1" stop-color="#DBA281"/>
</linearGradient>
</defs>
</svg>
